<svg width="221" height="54" viewBox="0 0 221 54" fill="none" xmlns="http://www.w3.org/2000/svg">
<path d="M4.224 12.192C3.75467 12.576 3.264 12.9387 2.752 13.28C2.24 13.6213 1.64267 13.792 0.96 13.792C0.32 13.792 0 13.216 0 12.064C0 9.71733 1.088 7.79733 3.264 6.304C5.35467 4.768 7.872 4 10.816 4C13.76 4 15.9147 5.04533 17.28 7.136C18.3893 8.8 18.944 11.0613 18.944 13.92C18.944 15.1573 18.7093 16.7573 18.24 18.72C15.808 28.8747 14.5707 35.9147 14.528 39.84C14.5707 41.7173 15.36 42.9973 16.896 43.68C17.4933 43.936 18.1973 44.064 19.008 44.064C22.8053 44.064 26.3893 41.824 29.76 37.344C28.0533 31.3707 27.2 24.5867 27.2 16.992C27.2 14.176 27.8613 11.8933 29.184 10.144C30.5493 8.352 32.7467 7.456 35.776 7.456C38.0373 7.456 39.744 8.096 40.896 9.376C42.0907 10.656 42.688 12.3413 42.688 14.432C42.688 18.7413 41.5573 24.0533 39.296 30.368C38.528 32.5013 37.632 34.6133 36.608 36.704C38.4427 41.6533 40.8747 44.128 43.904 44.128C47.3173 44.128 50.304 41.824 52.864 37.216C54.7413 33.8453 56.2773 29.2587 57.472 23.456C54.3573 23.0293 51.8827 21.7067 50.048 19.488C48.256 17.2693 47.36 14.9013 47.36 12.384C47.36 9.86666 48.1493 7.776 49.728 6.112C51.3067 4.448 53.4613 3.616 56.192 3.616C58.9227 3.57333 60.9707 4.53333 62.336 6.496C63.7013 8.416 64.384 11.04 64.384 14.368V15.648C64.384 16.1173 64.3627 16.6293 64.32 17.184C65.0453 16.8427 65.664 16.5013 66.176 16.16C66.688 15.776 67.2 15.584 67.712 15.584C68.5653 15.584 68.992 15.9467 68.992 16.672C68.992 18.08 68.5227 19.3173 67.584 20.384C66.688 21.4507 65.472 22.2613 63.936 22.816C63.3813 27.808 62.6347 31.7333 61.696 34.592C59.9467 40.096 57.6427 44.2773 54.784 47.136C51.3707 50.464 47.168 52.1493 42.176 52.192C38.0373 52.192 34.6667 49.44 32.064 43.936C27.712 49.44 22.7627 52.192 17.216 52.192C13.4187 52.192 10.3893 51.2533 8.128 49.376C5.90933 47.456 4.8 44.448 4.8 40.352C4.8 39.3707 5.33333 36.7893 6.4 32.608C7.50933 28.384 8.384 24.928 9.024 22.24C9.664 19.5093 9.984 17.3547 9.984 15.776C9.984 12.32 9.10933 10.592 7.36 10.592C6.76267 10.592 6.208 10.7627 5.696 11.104C5.22667 11.4453 4.736 11.808 4.224 12.192ZM35.264 12.832C34.1547 12.832 33.6 14.56 33.6 18.016C33.6 21.472 33.8987 24.9493 34.496 28.448C36.1173 24.224 36.928 20.128 36.928 16.16C36.928 15.3067 36.7787 14.5387 36.48 13.856C36.224 13.1733 35.8187 12.832 35.264 12.832ZM56.896 9.184C56 9.184 55.552 9.888 55.552 11.296C55.552 13.856 56.5547 15.712 58.56 16.864C58.7307 15.2427 58.816 14.1547 58.816 13.6C58.816 12.4053 58.6667 11.4453 58.368 10.72C58.0267 9.696 57.536 9.184 56.896 9.184ZM93.5885 46.56C90.2178 50.528 86.1645 52.512 81.4285 52.512C76.7352 52.512 73.2152 51.3173 70.8685 48.928C68.5218 46.496 67.3698 43.488 67.4125 39.904C67.3698 34.8267 68.9698 30.4533 72.2125 26.784C75.4552 23.1147 79.7005 21.28 84.9485 21.28C87.3378 21.28 89.2578 21.5787 90.7085 22.176C93.2258 23.2 94.4845 24.16 94.4845 25.056C94.4845 25.7387 92.7138 26.1013 89.1725 26.144C85.6738 26.144 82.7298 27.36 80.3405 29.792C77.9938 32.1813 76.8205 35.2107 76.8205 38.88C76.8205 40.8 77.3752 42.4213 78.4845 43.744C79.6365 45.024 81.2365 45.664 83.2845 45.664C85.3752 45.664 87.1032 45.2373 88.4685 44.384C85.4392 42.336 83.9245 39.3707 83.9245 35.488C83.8818 33.44 84.6072 31.584 86.1005 29.92C87.6365 28.2133 89.5778 27.36 91.9245 27.36C94.3138 27.3173 96.0205 27.9573 97.0445 29.28C98.0685 30.6027 98.5805 32.3093 98.5805 34.4C98.5805 36.448 98.0898 38.624 97.1085 40.928H97.4925C99.3698 40.8853 100.991 40.224 102.357 38.944C102.869 38.432 103.295 37.984 103.637 37.6C104.021 37.216 104.405 37.024 104.789 37.024C105.386 37.024 105.685 37.728 105.685 39.136C105.685 41.7387 104.917 43.7013 103.381 45.024C101.845 46.304 100.138 46.944 98.2605 46.944C96.4258 46.944 94.8685 46.816 93.5885 46.56ZM93.0125 39.136C93.7378 37.6 94.1005 36.1067 94.1005 34.656C94.1005 33.2053 93.6312 32.48 92.6925 32.48C92.3085 32.48 91.9885 32.7573 91.7325 33.312C91.4765 33.8667 91.3485 34.4 91.3485 34.912C91.3485 36.6187 91.9032 38.0267 93.0125 39.136ZM111.827 41.248L112.211 49.056C112.211 50.08 111.677 50.9973 110.611 51.808C109.544 52.6187 108.093 53.024 106.259 53.024C105.192 53.024 104.445 52.4693 104.019 51.36C103.635 50.2507 103.443 48.6293 103.443 46.496C103.443 42.016 103.656 38.5173 104.083 36C104.552 33.44 105.448 30.8587 106.771 28.256C104.808 26.3787 103.827 24.7573 103.827 23.392C103.827 20.5333 105.363 19.104 108.435 19.104C110.013 19.104 111.4 19.936 112.595 21.6C113.448 22.752 114.067 24.096 114.451 25.632C115.048 25.8453 115.795 25.952 116.691 25.952C117.928 25.952 119.357 25.5467 120.979 24.736L122.643 23.904C123.155 23.648 123.603 23.52 123.987 23.52C125.224 23.52 126.461 25.3333 127.699 28.96C127.315 30.624 126.888 32.224 126.419 33.76C125.992 35.296 125.48 37.152 124.883 39.328C124.285 41.504 123.965 42.976 123.923 43.744C123.923 44.4693 124.157 44.832 124.627 44.832C125.267 44.832 126.056 44.4267 126.995 43.616C127.933 42.8053 128.872 41.9307 129.811 40.992C130.749 40.0107 131.603 39.1147 132.371 38.304C133.181 37.4933 133.736 37.088 134.035 37.088C134.632 37.088 134.931 37.8133 134.931 39.264C134.931 42.208 133.629 45.1093 131.027 47.968C128.467 50.8267 125.523 52.2347 122.195 52.192C120.232 52.192 118.76 51.4027 117.779 49.824C116.797 48.2453 116.285 46.3253 116.243 44.064C116.243 39.584 117.245 35.3387 119.251 31.328C118.312 31.712 117.245 31.904 116.051 31.904C114.899 31.904 114.067 31.8613 113.555 31.776C113.171 33.3973 112.787 35.04 112.403 36.704C112.019 38.3253 111.827 39.84 111.827 41.248ZM150.421 37.984C151.573 42.5493 153.514 44.832 156.245 44.832C157.567 44.832 158.762 44.4267 159.829 43.616C160.895 42.8053 161.855 41.9307 162.708 40.992C163.562 40.0107 164.309 39.1147 164.949 38.304C165.589 37.4933 166.186 37.088 166.741 37.088C167.295 37.088 167.573 37.8133 167.573 39.264C167.573 42.2933 166.165 45.216 163.349 48.032C160.533 50.848 157.375 52.2347 153.877 52.192C150.421 52.192 147.327 49.1413 144.597 43.04C143.829 41.3333 143.103 39.6053 142.421 37.856L141.973 46.624C141.973 47.4347 141.93 48.2453 141.845 49.056C141.759 49.824 141.397 50.464 140.757 50.976C139.093 52.2987 137.407 52.96 135.701 52.96C133.695 52.96 132.693 50.8907 132.693 46.752C132.693 40.7787 133.397 34.528 134.805 28C136.213 21.472 137.578 16.5653 138.901 13.28C140.266 9.952 141.311 7.73333 142.037 6.624C142.805 5.51466 143.402 4.832 143.829 4.576C144.255 4.32 144.725 4.192 145.237 4.192C145.791 4.192 146.367 4.46933 146.965 5.024C147.562 5.536 148.202 6.34666 148.885 7.456C149.567 8.52267 149.909 9.58933 149.909 10.656C149.951 11.68 149.781 12.704 149.397 13.728C149.055 14.7093 148.586 15.6907 147.989 16.672C147.391 17.6107 146.73 18.592 146.005 19.616C145.279 20.5973 144.554 21.664 143.829 22.816L143.189 28.192C144.682 25.0773 146.879 22.9867 149.781 21.92C150.805 21.536 151.999 21.344 153.365 21.344C156.095 21.344 158.186 22.0053 159.637 23.328C161.087 24.608 161.812 26.5067 161.812 29.024C161.812 31.5413 160.554 33.6747 158.037 35.424C155.519 37.1733 152.981 38.0267 150.421 37.984ZM152.853 30.496C152.853 28.96 151.978 28.192 150.229 28.192C148.479 28.192 146.581 29.8773 144.533 33.248C143.935 34.2293 143.423 35.232 142.997 36.256C147.434 36 150.463 34.8053 152.085 32.672C152.597 31.9893 152.853 31.264 152.853 30.496ZM172.038 52.192C167.771 52.192 165.638 48.2027 165.638 40.224C165.638 35.872 166.171 31.9253 167.238 28.384C168.902 22.9227 170.779 20.192 172.87 20.192C174.107 20.192 175.088 21.024 175.814 22.688C176.411 23.968 176.688 25.2267 176.646 26.464C176.646 28.1707 176.134 31.1787 175.11 35.488C174.128 39.2427 173.638 41.568 173.638 42.464C173.638 43.36 173.851 43.9787 174.278 44.32C174.747 44.6613 175.28 44.832 175.878 44.832C176.518 44.832 177.307 44.4267 178.246 43.616C179.184 42.8053 180.123 41.9307 181.062 40.992C182 40.0107 182.854 39.1147 183.622 38.304C184.432 37.4933 184.987 37.088 185.286 37.088C185.883 37.088 186.182 37.8133 186.182 39.264C186.182 42.2507 184.667 45.1733 181.638 48.032C178.651 50.848 175.451 52.2347 172.038 52.192ZM174.662 15.008C173.51 13.3013 172.934 11.4667 172.934 9.504C172.934 7.54133 173.232 5.92 173.83 4.64C174.47 3.31733 175.067 2.35733 175.622 1.76C176.176 1.12 176.816 0.799999 177.542 0.799999C178.736 0.799999 179.824 1.696 180.806 3.488C181.787 5.23733 182.278 6.70933 182.278 7.904C182.278 10.1227 181.488 11.872 179.91 13.152C178.374 14.3893 176.624 15.008 174.662 15.008ZM191.495 20.064C193.031 20.064 194.481 21.536 195.847 24.48C197.852 22.3893 200.327 21.344 203.271 21.344C206.257 21.344 208.497 22.0053 209.991 23.328C211.484 24.608 212.231 26.4427 212.231 28.832C212.231 31.1787 211.911 33.568 211.271 36C210.673 38.432 210.225 40.1813 209.927 41.248C209.671 42.272 209.543 43.1253 209.543 43.808C209.543 44.4907 209.777 44.832 210.247 44.832C210.887 44.832 211.676 44.4267 212.615 43.616C213.553 42.8053 214.492 41.9307 215.431 40.992C216.369 40.0107 217.223 39.1147 217.991 38.304C218.801 37.4933 219.356 37.088 219.655 37.088C220.252 37.088 220.551 37.8133 220.551 39.264C220.551 42.2507 219.079 45.1307 216.135 47.904C211.185 50.8053 208.028 52.256 206.663 52.256C206.535 52.256 206.449 52.2347 206.407 52.192C202.993 52.192 201.287 49.4613 201.287 44C201.287 41.6533 201.5 39.4987 201.927 37.536C202.396 35.5733 202.737 34.144 202.951 33.248C203.164 32.352 203.271 31.4347 203.271 30.496C203.271 28.96 202.375 28.192 200.583 28.192C198.833 28.192 197.148 29.5147 195.527 32.16C193.948 34.7627 192.881 37.472 192.327 40.288V40.736C192.327 42.1867 192.54 43.68 192.967 45.216C193.436 46.752 193.671 47.8187 193.671 48.416C193.671 49.8667 191.857 51.296 188.231 52.704C187.676 52.9173 187.185 53.024 186.759 53.024C185.692 53.024 184.945 52.4693 184.519 51.36C184.135 50.2507 183.943 48.5227 183.943 46.176C183.943 40.1173 184.177 35.744 184.647 33.056C185.287 29.0453 186.737 25.312 188.999 21.856C189.767 20.6613 190.599 20.064 191.495 20.064Z" fill="black"/>
</svg>
